<svg width="117" height="116" viewBox="0 0 117 116" fill="none" xmlns="http://www.w3.org/2000/svg">
<path id="Vector" d="M32.3165 43.5C24.1965 43.5 17.8165 49.88 17.8165 58C17.8165 66.12 24.1965 72.5 32.3165 72.5C40.4365 72.5 46.8165 66.12 46.8165 58C46.8165 49.88 40.4365 43.5 32.3165 43.5ZM84.5165 43.5C76.3965 43.5 70.0165 49.88 70.0165 58C70.0165 66.12 76.3965 72.5 84.5165 72.5C92.6365 72.5 99.0165 66.12 99.0165 58C99.0165 49.88 92.6365 43.5 84.5165 43.5ZM58.4165 11.6C83.9365 11.6 104.817 32.48 104.817 58C104.817 83.52 83.9365 104.4 58.4165 104.4C32.8965 104.4 12.0165 83.52 12.0165 58C12.0165 32.48 32.8965 11.6 58.4165 11.6ZM58.4165 0C26.5165 0 0.416504 26.1 0.416504 58C0.416504 89.9 26.5165 116 58.4165 116C90.3165 116 116.417 89.9 116.417 58C116.417 26.1 90.3165 0 58.4165 0ZM58.4165 17.4C50.2965 17.4 43.9165 23.78 43.9165 31.9C43.9165 40.02 50.2965 46.4 58.4165 46.4C66.5365 46.4 72.9165 40.02 72.9165 31.9C72.9165 23.78 66.5365 17.4 58.4165 17.4ZM67.1165 31.9C67.1165 33.06 66.5365 34.22 65.9565 35.38L62.4765 31.9L65.9565 28.42C66.5365 29.58 67.1165 30.74 67.1165 31.9ZM61.8965 24.36L58.4165 27.84L54.9365 24.36C56.0965 23.78 57.2565 23.2 58.4165 23.2C59.5765 23.2 60.7365 23.78 61.8965 24.36ZM50.8765 35.38C50.2965 34.22 49.7165 33.06 49.7165 31.9C49.7165 30.74 50.2965 29.58 50.8765 28.42L54.3565 31.9L50.8765 35.38ZM54.9365 39.44L58.4165 35.96L61.8965 39.44C60.7365 40.02 59.5765 40.6 58.4165 40.6C57.2565 40.6 56.0965 40.02 54.9365 39.44ZM58.4165 69.6C50.2965 69.6 43.9165 75.98 43.9165 84.1C43.9165 92.22 50.2965 98.6 58.4165 98.6C66.5365 98.6 72.9165 92.22 72.9165 84.1C72.9165 75.98 66.5365 69.6 58.4165 69.6ZM67.1165 84.1C67.1165 85.26 66.5365 86.42 65.9565 87.58L62.4765 84.1L65.9565 80.62C66.5365 81.78 67.1165 82.94 67.1165 84.1ZM61.8965 76.56L58.4165 80.04L54.9365 76.56C56.0965 75.98 57.2565 75.4 58.4165 75.4C59.5765 75.4 60.7365 75.98 61.8965 76.56ZM50.8765 87.58C50.2965 86.42 49.7165 85.26 49.7165 84.1C49.7165 82.94 50.2965 81.78 50.8765 80.62L54.3565 84.1L50.8765 87.58ZM54.9365 91.64L58.4165 88.16L61.8965 91.64C60.7365 92.22 59.5765 92.8 58.4165 92.8C57.2565 92.8 56.0965 92.22 54.9365 91.64Z" fill="white"/>
</svg>
