<svg width="118" height="118" viewBox="0 0 118 118" fill="none" xmlns="http://www.w3.org/2000/svg">
<rect x="4.7624" y="4.6175" width="108.181" height="108.181" rx="8.57536" stroke="white" stroke-width="9.235"/>
<path d="M23.497 59.258C23.497 55.7799 24.2983 52.6599 25.9009 49.8979C27.5377 47.136 29.737 44.9878 32.499 43.4533C35.2951 41.8848 38.3469 41.1005 41.6544 41.1005C45.4393 41.1005 48.798 42.0382 51.7305 43.9137C54.6971 45.755 56.8453 48.3806 58.1751 51.7904H51.1679C50.2472 49.915 48.9685 48.517 47.3318 47.5963C45.6951 46.6756 43.8026 46.2153 41.6544 46.2153C39.3016 46.2153 37.2046 46.7438 35.3633 47.8009C33.5219 48.8579 32.0728 50.3753 31.0157 52.353C29.9927 54.3307 29.4813 56.6324 29.4813 59.258C29.4813 61.8836 29.9927 64.1852 31.0157 66.1629C32.0728 68.1406 33.5219 69.6751 35.3633 70.7662C37.2046 71.8233 39.3016 72.3518 41.6544 72.3518C43.8026 72.3518 45.6951 71.8915 47.3318 70.9708C48.9685 70.0501 50.2472 68.6521 51.1679 66.7767H58.1751C56.8453 70.1865 54.6971 72.8121 51.7305 74.6534C48.798 76.4947 45.4393 77.4154 41.6544 77.4154C38.3128 77.4154 35.261 76.6482 32.499 75.1138C29.737 73.5452 27.5377 71.38 25.9009 68.618C24.2983 65.856 23.497 62.736 23.497 59.258ZM90.5228 48.9261V77.1085H84.692V73.7839C83.7713 74.9433 82.5609 75.8639 81.0605 76.5459C79.5943 77.1938 78.0258 77.5177 76.3549 77.5177C74.1385 77.5177 72.1438 77.0574 70.3707 76.1367C68.6316 75.2161 67.2506 73.8521 66.2277 72.0449C65.2388 70.2377 64.7444 68.0554 64.7444 65.498V48.9261H70.5241V64.6285C70.5241 67.1518 71.1549 69.0954 72.4166 70.4593C73.6782 71.7892 75.4002 72.4541 77.5825 72.4541C79.7648 72.4541 81.4868 71.7892 82.7484 70.4593C84.0441 69.0954 84.692 67.1518 84.692 64.6285V48.9261H90.5228Z" fill="white"/>
</svg>
