<svg width="118" height="118" viewBox="0 0 118 118" fill="none" xmlns="http://www.w3.org/2000/svg">
<path id="Vector" d="M41.0305 117.416H59.491L117.416 59.491V41.0305M104.37 117.416C107.958 117.416 111.219 115.981 113.568 113.568C115.981 111.219 117.416 107.958 117.416 104.37V91.3239L91.3239 117.416M13.0463 0C9.58618 0 6.26781 1.37451 3.82116 3.82116C1.37451 6.26781 0 9.58618 0 13.0463V26.0925L26.0925 0M57.9254 0L0 57.9254V76.3859L76.3859 0M107.632 0.52185L0.52185 107.632C1.10893 109.915 2.2831 111.937 3.84865 113.568C5.47943 115.133 7.50161 116.307 9.7847 116.895L116.96 9.7847C115.72 5.21851 112.198 1.69601 107.632 0.52185Z" fill="white"/>
</svg>
